<svg width="118" height="118" viewBox="0 0 118 118" fill="none" xmlns="http://www.w3.org/2000/svg">
<path fill-rule="evenodd" clip-rule="evenodd" d="M96.2062 8.42289C98.3723 7.20445 99.1405 4.46073 97.9221 2.29462C96.7037 0.128512 93.9599 -0.639729 91.7938 0.578708L86.103 3.77979C84.2269 4.83511 81.5492 6.8034 80.5975 10.203C79.9966 12.3493 79.9982 14.5383 79.9998 16.6901L80 17.0216V19.5008H63.6753C59.4895 19.5008 55.8496 21.8389 53.9906 25.2803C51.1827 24.9405 48.4095 24.9664 45.9307 24.9897L45.9302 24.9897C45.3265 24.9953 44.7403 25.0008 44.1753 25.0008C31.7862 25.0008 21.2265 27.407 13.558 33.466C5.72856 39.6522 1.66523 49.0358 1.07591 61.2765C0.866286 65.6306 4.40869 69.0008 8.50182 69.0008H8.51747H8.53306H8.54857H8.56402H8.57939H8.5947H8.60994H8.62511H8.64021H8.65525H8.67021H8.68512H8.69995H8.71472H8.72942H8.74406H8.75863H8.77313H8.78757H8.80195H8.81626H8.8305H8.84469H8.85881H8.87286H8.88686H8.90079H8.91465H8.92846H8.9422H8.95589H8.96951H8.98307H8.99657H9.01H9.02338H9.0367H9.04996H9.06316H9.0763H9.08938H9.10241H9.11537H9.12828H9.13572L9.03773 80.1772C6.60237 80.5792 4.40455 81.6812 2.74841 83.6151C0.700167 86.0069 0 89.0698 0 92.0008C0 94.9313 0.702719 97.9846 2.89907 100.304C4.60152 102.101 6.77704 103.014 9.06504 103.348L9.00141 105.888L8.99999 105.944V106.001C8.99999 109.348 9.76028 112.975 12.9688 115.408C15.7987 117.553 19.6331 118.001 23.5 118.001H73.6753H94C96.9017 118.001 99.2473 117.928 101.093 117.694C102.842 117.473 104.806 117.04 106.412 115.827C108.292 114.406 108.95 112.51 109.207 111.01C109.366 110.082 109.418 108.903 109.458 107.975V107.975L109.459 107.973C109.47 107.713 109.481 107.473 109.492 107.263L109.493 107.256L112.992 49.2719L112.992 49.2638L112.993 49.2557C113.01 48.9505 113.017 48.5961 113.021 48.2705C113.334 48.2042 113.649 48.1192 113.954 48.0104C114.889 47.6769 116.025 47.0377 116.883 45.8292C117.739 44.6225 118 43.2949 118 42.1587V32.5008C118 28.4002 116.289 24.9677 113.393 22.6601C110.611 20.4444 107.053 19.5008 103.535 19.5008H89V17.0216C89 14.3961 89.0342 13.454 89.2631 12.6334C89.2727 12.6117 89.3159 12.5305 89.4525 12.3902C89.6604 12.1767 90.0037 11.9118 90.5154 11.624L96.2062 8.42289ZM72.5468 31.9389C70.4264 30.6193 68.0547 29.5147 65.3923 28.5008H84.5H103.535C105.541 28.5008 106.964 29.0458 107.785 29.6994C108.49 30.261 109 31.0785 109 32.5008V39.5008H80.467C78.2982 36.3724 75.7709 33.9454 72.5468 31.9389ZM85.3424 48.5008H104.017C104.015 48.5847 104.012 48.6623 104.008 48.7392L104.007 48.7459L100.508 106.73L100.508 106.738L100.507 106.746C100.472 107.36 100.452 107.82 100.436 108.183V108.184L100.436 108.186C100.427 108.383 100.42 108.552 100.412 108.7C100.283 108.722 100.134 108.744 99.9631 108.765C98.7151 108.923 96.8483 109.001 94 109.001H78.1753V103.39C80.5695 103.109 82.9251 102.281 84.8747 100.739C87.4647 98.6914 89 95.6322 89 92.0008C89 85.1154 83.8198 80.8469 78.0386 80.1138L78.1361 69.0008H78.1497H78.1636H78.1776H78.1916H78.2057H78.2197H78.2338H78.248H78.2621H78.2763H78.2905H78.3048H78.3191H78.3334H78.3477H78.3621H78.3765H78.391H78.4055H78.42H78.4345H78.4491H78.4638H78.4784H78.4931H78.5078H78.5226H78.5374H78.5522H78.5671H78.582H78.5969H78.6119H78.627H78.642H78.6571H78.6722H78.6874H78.7026H78.7179H78.7331H78.7485H78.7638H78.7793H78.7947H78.8102H78.8257H78.8413H78.8569H78.8725H78.8882H78.904H78.9197H78.9356H78.9514H78.9673H78.9833H78.9993H79.0153H79.0314H79.0475H79.0637H79.0799H79.0962H79.1125H79.1288H79.1452H79.1617H79.1781H79.1947H79.2113H79.2279H79.2446H79.2613H79.2781H79.2949H79.3117H79.3287H79.3456H79.3626H79.3797H79.3968H79.414H79.4312H79.4484H79.4658H79.4831H79.5005H79.518H79.5355H79.5531H79.5707H79.5884H79.6061H79.6239H79.6417H79.6596H79.6776H79.6956H79.7136H79.7317H79.7499H79.7681H79.7864H79.8047H79.8231H79.8415H79.86H79.8785H79.8971H79.9158H79.9345H79.9533H79.9721H79.991H80.01H80.029H80.048H80.0672H80.0864H80.1056H80.1249H80.1443H80.1637H80.1832H80.2027H80.2224H80.242H80.2617H80.2815H80.3014H80.3213H80.3413H80.3613H80.3814H80.4016H80.4218H80.4421H80.4625H80.4829H80.5034H80.524H80.5446H80.5653H80.586H80.6068H80.6277H80.6487H80.6697H80.6908H80.7119H80.7331H80.7544H80.7758H80.7972H80.8187H80.8402H80.8619H80.8836H80.9053H80.9272H80.9491H80.971H80.9931H81.0152H81.0374H81.0597H81.082H81.1044H81.1269H81.1494H81.172H81.1947H81.2175H81.2403H81.2632H81.2862H81.3093H81.3324H81.3556H81.3789H81.4023H81.4257H81.4492H81.4728H81.4964C85.4914 69.0008 89.3079 65.6581 88.8107 61.0263C88.3195 56.4505 86.9281 52.1584 85.3424 48.5008ZM69.1753 103.501V109.001H23.5C19.8669 109.001 18.7013 108.46 18.4062 108.236L18.4002 108.231C18.3612 108.202 18.3096 108.164 18.2344 107.958C18.1291 107.67 18.0041 107.098 18.0001 106.053L18.064 103.501H69.1753ZM69.1357 69.0008L69.0393 80.0008H18.0396L18.1361 69.0008H18.2089H18.2959H18.3823H18.4682H18.5535H18.6383H18.7225H18.8062H18.8893H18.9719H19.054H19.1356H19.2166H19.2971H19.377H19.4565H19.5354H19.6138H19.6917H19.7691H19.846H19.9224H19.9982H20.0736H20.1485H20.2229H20.2968H20.3702H20.4431H20.5156H20.5875H20.659H20.73H20.8006H20.8706H20.9402H21.0094H21.0781H21.1463H21.214H21.2814H21.3482H21.4146H21.4806H21.5461H21.6112H21.6759H21.7401H21.8039H21.8673H21.9302H21.9927H22.0548H22.1165H22.1778H22.2386H22.299H22.3591H22.4187H22.4779H22.5368H22.5952H22.6533H22.7109H22.7682H22.8251H22.8816H22.9377H22.9934H23.0488H23.1038H23.1584H23.2127H23.2666H23.3201H23.3733H23.4261H23.4786H23.5308H23.5825H23.634H23.6851H23.7358H23.7862H23.8363H23.8861H23.9355H23.9846H24.0334H24.0819H24.13H24.1779H24.2254H24.2726H24.3195H24.3661H24.4124H24.4584H24.5041H24.5496H24.5947H24.6395H24.6841H24.7284H24.7724H24.8161H24.8595H24.9027H24.9456H24.9883H25.0307H25.0728H25.1146H25.1563H25.1976H25.2387H25.2796H25.3202H25.3606H25.4007H25.4407H25.4803H25.5198H25.559H25.598H25.6368H25.6753H25.7137H25.7518H25.7897H25.8274H25.8649H25.9022H25.9393H25.9762H26.0129H26.0494H26.0858H26.1219H26.1578H26.1936H26.2292H26.2646H26.2999H26.335H26.3699H26.4046H26.4392H26.4736H26.5079H26.542H26.576H26.6098H26.6435H26.677H26.7104H26.7436H26.7768H26.8097H26.8426H26.8753H26.9079H26.9404H26.9728H27.005H27.0372H27.0692H27.1011H27.1329H27.1646H27.1963H27.2278H27.2592H27.2905H27.3218H27.3529H27.384H27.415H27.4459H27.4768H27.5075H27.5382H27.5689H27.5994H27.6299H27.6604H27.6908H27.7211H27.7514H27.7816H27.8118H27.842H27.8721H27.9022H27.9322H27.9622H27.9922H28.0222H28.0521H28.082H28.1119H28.1418H28.1717H28.2015H28.2314H28.2612H28.2911H28.3209H28.3508H28.3806H28.4105H28.4404H28.4703H28.5002H28.5301H28.5601H28.5901H28.6201H28.6501H28.6802H28.7103H28.7405H28.7706H28.8009H28.8312H28.8615H28.8919H28.9223H28.9528H28.9834H29.014H29.0447H29.0755H29.1063H29.1372H29.1682H29.1993H29.2304H29.2617H29.293H29.3244H29.3559H29.3875H29.4192H29.451H29.4829H29.5149H29.547H29.5793H29.6116H29.6441H29.6767H29.7094H29.7423H29.7752H29.8083H29.8416H29.8749H29.9084H29.9421H29.9759H30.0099H30.044H30.0782H30.1126H30.1472H30.1819H30.2168H30.2519H30.2871H30.3225H30.3581H30.3938H30.4298H30.4659H30.5022H30.5387H30.5754H30.6123H30.6493H30.6866H30.7241H30.7618H30.7997H30.8378H30.8761H30.9146H30.9534H30.9923H31.0315H31.071H31.1106H31.1505H31.1906H31.231H31.2716H31.3124H31.3535H31.3948H31.4364H31.4782H31.5203H31.5627H31.6053H31.6482H31.6913H31.7348H31.7785H31.8224H31.8667H31.9112H31.956H32.0011H32.0465H32.0922H32.1382H32.1844H32.231H32.2779H32.3251H32.3725H32.4203H32.4685H32.5169H32.5656H32.6147H32.6641H32.7138H32.7639H32.8143H32.865H32.916H32.9674H33.0192H33.0713H33.1237H33.1765H33.2297H33.2832H33.337H33.3912H33.4458H33.5008H33.5561H33.6118H33.6679H33.7244H33.7812H33.8384H33.896H33.954H34.0124H34.0712H34.1304H34.19H34.25H34.3104H34.3712H34.4324H34.494H34.5561H34.6186H34.6815H34.7448H34.8085H34.8727H34.9373H35.0023H35.0678H35.1338H35.2001H35.2669H35.3342H35.4019H35.4701H35.5387H35.6078H35.6774H35.7474H35.8179H35.8888H35.9603H36.0322H36.1046H36.1774H36.2508H36.3247H36.399H36.4738H36.5491H36.625H36.7013H36.7781H36.8554H36.9333H37.0117H37.0905H37.1699H37.2498H37.3303H37.4112H37.4927H37.5747H37.6573H37.7404H37.824H37.9082H37.9929H38.0781H38.1639H38.2503H38.3372H38.4247H38.5127H38.6013H38.6905H38.7803H38.8706H38.9614H39.0529H39.145H39.2376H39.3308H39.4246H39.519H39.614H39.7095H39.8057H39.9025H39.9999H40.0979H40.1965H40.2957H40.3955H40.496H40.5971H40.6987H40.8011H40.904H41.0076H41.1118H41.2167H41.3222H41.4283H41.5351H41.6425H41.7506H41.8593H41.9687H42.0787H42.1894H42.3008H42.4129H42.5256H42.639H42.753H42.8677H42.9832H43.0993H43.216H43.3335H43.4517H43.5705H43.6901H43.8104H43.9313H44.053H44.1753H44.2922H44.4084H44.524H44.6391H44.7536H44.8675H44.9808H45.0935H45.2057H45.3173H45.4284H45.5389H45.6488H45.7581H45.8669H45.9752H46.0829H46.19H46.2966H46.4026H46.5081H46.6131H46.7175H46.8214H46.9247H47.0275H47.1297H47.2315H47.3327H47.4333H47.5335H47.6331H47.7322H47.8308H47.9289H48.0264H48.1235H48.22H48.316H48.4115H48.5065H48.601H48.695H48.7886H48.8816H48.9741H49.0661H49.1576H49.2487H49.3393H49.4293H49.5189H49.6081H49.6967H49.7849H49.8726H49.9598H50.0465H50.1328H50.2186H50.304H50.3889H50.4733H50.5573H50.6408H50.7239H50.8065H50.8887H50.9705H51.0517H51.1326H51.213H51.293H51.3725H51.4516H51.5303H51.6085H51.6863H51.7637H51.8406H51.9172H51.9933H52.069H52.1443H52.2192H52.2936H52.3677H52.4413H52.5146H52.5874H52.6599H52.7319H52.8036H52.8748H52.9457H53.0162H53.0863H53.1559H53.2253H53.2942H53.3628H53.4309H53.4987H53.5662H53.6332H53.6999H53.7662H53.8322H53.8978H53.963H54.0279H54.0924H54.1566H54.2204H54.2838H54.347H54.4097H54.4721H54.5342H54.596H54.6574H54.7184H54.7792H54.8396H54.8996H54.9594H55.0188H55.0779H55.1367H55.1951H55.2533H55.3111H55.3686H55.4258H55.4827H55.5393H55.5955H55.6515H55.7072H55.7626H55.8177H55.8724H55.9269H55.9812H56.0351H56.0887H56.1421H56.1951H56.2479H56.3004H56.3526H56.4046H56.4563H56.5077H56.5589H56.6098H56.6604H56.7108H56.7609H56.8107H56.8603H56.9096H56.9587H57.0076H57.0562H57.1045H57.1526H57.2005H57.2482H57.2956H57.3427H57.3896H57.4364H57.4828H57.5291H57.5751H57.6209H57.6665H57.7119H57.757H57.802H57.8467H57.8912H57.9355H57.9796H58.0235H58.0672H58.1108H58.1541H58.1972H58.2401H58.2828H58.3254H58.3678H58.4099H58.4519H58.4938H58.5354H58.5769H58.6181H58.6593H58.7002H58.741H58.7816H58.8221H58.8624H58.9025H58.9425H58.9823H59.022H59.0615H59.1009H59.1401H59.1792H59.2181H59.2569H59.2956H59.3341H59.3725H59.4108H59.4489H59.4869H59.5248H59.5625H59.6002H59.6377H59.6751H59.7123H59.7495H59.7866H59.8235H59.8604H59.8971H59.9337H59.9703H60.0067H60.043H60.0793H60.1154H60.1515H60.1875H60.2234H60.2592H60.2949H60.3305H60.3661H60.4016H60.437H60.4724H60.5076H60.5429H60.578H60.6131H60.6481H60.6831H60.718H60.7528H60.7876H60.8224H60.8571H60.8917H60.9263H60.9609H60.9954H61.0299H61.0643H61.0988H61.1331H61.1675H61.2018H61.2361H61.2704H61.3047H61.3389H61.3731H61.4073H61.4415H61.4757H61.5099H61.544H61.5782H61.6124H61.6465H61.6807H61.7148H61.749H61.7832H61.8174H61.8516H61.8858H61.92H61.9543H61.9885H62.0228H62.0571H62.0915H62.1258H62.1602H62.1947H62.2291H62.2636H62.2982H62.3328H62.3674H62.4021H62.4368H62.4716H62.5064H62.5413H62.5762H62.6112H62.6462H62.6813H62.7165H62.7517H62.787H62.8224H62.8579H62.8934H62.929H62.9647H63.0004H63.0363H63.0722H63.1082H63.1443H63.1805H63.2168H63.2532H63.2897H63.3262H63.3629H63.3997H63.4366H63.4736H63.5107H63.5479H63.5852H63.6227H63.6603H63.698H63.7358H63.7737H63.8118H63.8499H63.8883H63.9267H63.9653H64.004H64.0429H64.0819H64.121H64.1603H64.1998H64.2393H64.2791H64.319H64.359H64.3992H64.4396H64.4801H64.5208H64.5617H64.6027H64.6439H64.6853H64.7268H64.7685H64.8104H64.8525H64.8948H64.9372H64.9798H65.0227H65.0657H65.1089H65.1523H65.1959H65.2397H65.2837H65.3279H65.3723H65.4169H65.4617H65.5068H65.552H65.5975H65.6432H65.6891H65.7352H65.7815H65.8281H65.8749H65.922H65.9692H66.0167H66.0645H66.1124H66.1607H66.2091H66.2578H66.3068H66.356H66.4054H66.4552H66.5051H66.5553H66.6058H66.6566H66.7076H66.7589H66.8104H66.8622H66.9143H66.9666H67.0193H67.0722H67.1254H67.1788H67.2326H67.2867H67.341H67.3956H67.4505H67.5058H67.5613H67.6171H67.6732H67.7296H67.7863H67.8434H67.9007H67.9583H68.0163H68.0746H68.1332H68.1921H68.2513H68.3109H68.3708H68.431H68.4916H68.5524H68.6137H68.6752H68.7371H68.7993H68.8619H68.9248H68.9881H69.0517H69.1157H69.1357ZM89.2608 12.6394C89.2607 12.6394 89.2613 12.6376 89.2629 12.634C89.2617 12.6376 89.261 12.6394 89.2608 12.6394ZM46.1857 33.9934H46.1864C50.0767 33.9714 53.0396 33.9546 55.8773 34.8095C61.4079 36.4756 65.0553 37.8772 67.7913 39.58C70.3819 41.1922 72.2981 43.1671 74.1162 46.2738C76.2076 49.8472 78.6124 54.7571 79.5726 60.0008H79.5707H79.5531H79.5355H79.518H79.5005H79.4831H79.4658H79.4484H79.4312H79.414H79.3968H79.3797H79.3626H79.3456H79.3287H79.3117H79.2949H79.2781H79.2613H79.2446H79.2279H79.2113H79.1947H79.1781H79.1617H79.1452H79.1288H79.1125H79.0962H79.0799H79.0637H79.0475H79.0314H79.0153H78.9993H78.9833H78.9673H78.9514H78.9356H78.9197H78.904H78.8882H78.8725H78.8569H78.8413H78.8257H78.8102H78.7947H78.7793H78.7638H78.7485H78.7331H78.7179H78.7026H78.6874H78.6722H78.6571H78.642H78.627H78.6119H78.5969H78.582H78.5671H78.5522H78.5374H78.5226H78.5078H78.4931H78.4784H78.4638H78.4491H78.4345H78.42H78.4055H78.391H78.3765H78.3621H78.3477H78.3334H78.3191H78.3048H78.2905H78.2763H78.2621H78.248H78.2338H78.2197H78.2057H78.1916H78.1776H78.1636H78.1497H78.1358H78.1219H78.108H78.0942H78.0804H78.0666H78.0529H78.0391H78.0254H78.0118H77.9981H77.9845H77.9709H77.9574H77.9438H77.9303H77.9168H77.9034H77.8899H77.8765H77.8631H77.8498H77.8364H77.8231H77.8098H77.7966H77.7833H77.7701H77.7569H77.7437H77.7305H77.7174H77.7043H77.6912H77.6781H77.6651H77.652H77.639H77.626H77.613H77.6001H77.5871H77.5742H77.5613H77.5484H77.5356H77.5227H77.5099H77.4971H77.4843H77.4715H77.4587H77.446H77.4333H77.4205H77.4078H77.3951H77.3825H77.3698H77.3572H77.3446H77.3319H77.3193H77.3067H77.2942H77.2816H77.2691H77.2565H77.244H77.2315H77.219H77.2065H77.194H77.1815H77.1691H77.1566H77.1442H77.1318H77.1193H77.1069H77.0945H77.0821H77.0697H77.0574H77.045H77.0326H77.0203H77.0079H76.9956H76.9833H76.9709H76.9586H76.9463H76.934H76.9217H76.9094H76.8971H76.8848H76.8725H76.8602H76.8479H76.8357H76.8234H76.8111H76.7989H76.7866H76.7743H76.7621H76.7498H76.7376H76.7253H76.7131H76.7008H76.6886H76.6763H76.6641H76.6518H76.6396H76.6273H76.6151H76.6028H76.5905H76.5783H76.566H76.5538H76.5415H76.5292H76.517H76.5047H76.4924H76.4801H76.4678H76.4555H76.4433H76.431H76.4186H76.4063H76.394H76.3817H76.3694H76.357H76.3447H76.3324H76.32H76.3076H76.2953H76.2829H76.2705H76.2581H76.2457H76.2333H76.2209H76.2085H76.196H76.1836H76.1711H76.1586H76.1461H76.1337H76.1212H76.1086H76.0961H76.0836H76.071H76.0585H76.0459H76.0333H76.0207H76.0081H75.9955H75.9828H75.9702H75.9575H75.9448H75.9321H75.9194H75.9067H75.8939H75.8811H75.8684H75.8556H75.8428H75.8299H75.8171H75.8042H75.7913H75.7784H75.7655H75.7526H75.7396H75.7266H75.7136H75.7006H75.6876H75.6745H75.6615H75.6484H75.6353H75.6221H75.609H75.5958H75.5826H75.5694H75.5561H75.5428H75.5295H75.5162H75.5029H75.4895H75.4762H75.4627H75.4493H75.4358H75.4224H75.4089H75.3953H75.3818H75.3682H75.3546H75.3409H75.3272H75.3136H75.2998H75.2861H75.2723H75.2585H75.2447H75.2308H75.2169H75.203H75.1891H75.1751H75.1611H75.147H75.133H75.1189H75.1048H75.0906H75.0764H75.0622H75.0479H75.0337H75.0193H75.005H74.9906H74.9762H74.9617H74.9473H74.9327H74.9182H74.9036H74.889H74.8743H74.8596H74.8449H74.8302H74.8154H74.8005H74.7857H74.7708H74.7558H74.7408H74.7258H74.7108H74.6957H74.6805H74.6654H74.6502H74.6349H74.6196H74.6043H74.5889H74.5735H74.5581H74.5426H74.5271H74.5115H74.4959H74.4802H74.4646H74.4488H74.4331H74.4172H74.4014H74.3855H74.3695H74.3535H74.3375H74.3214H74.3053H74.2891H74.2729H74.2567H74.2404H74.224H74.2076H74.1912H74.1747H74.1582H74.1416H74.125H74.1083H74.0916H74.0748H74.058H74.0411H74.0242H74.0072H73.9902H73.9732H73.9561H73.9389H73.9217H73.9044H73.8871H73.8698H73.8523H73.8349H73.8174H73.7998H73.7822H73.7645H73.7468H73.729H73.7112H73.6933H73.6753H73.5865H73.4981H73.4102H73.3228H73.2358H73.1493H73.0633H72.9777H72.8926H72.808H72.7238H72.6401H72.5568H72.474H72.3916H72.3096H72.2282H72.1471H72.0665H71.9864H71.9066H71.8273H71.7485H71.67H71.592H71.5145H71.4373H71.3606H71.2843H71.2084H71.1329H71.0579H70.9832H70.909H70.8351H70.7617H70.6887H70.6161H70.5438H70.472H70.4006H70.3296H70.2589H70.1886H70.1188H70.0493H69.9802H69.9115H69.8431H69.7751H69.7076H69.6403H69.5735H69.507H69.4409H69.3751H69.3097H69.2447H69.18H69.1157H69.0517H68.9881H68.9248H68.8619H68.7993H68.7371H68.6752H68.6137H68.5524H68.4916H68.431H68.3708H68.3109H68.2513H68.1921H68.1332H68.0746H68.0163H67.9583H67.9007H67.8434H67.7863H67.7296H67.6732H67.6171H67.5613H67.5058H67.4505H67.3956H67.341H67.2867H67.2326H67.1788H67.1254H67.0722H67.0193H66.9666H66.9143H66.8622H66.8104H66.7589H66.7076H66.6566H66.6058H66.5553H66.5051H66.4552H66.4054H66.356H66.3068H66.2578H66.2091H66.1607H66.1124H66.0645H66.0167H65.9692H65.922H65.8749H65.8281H65.7815H65.7352H65.6891H65.6432H65.5975H65.552H65.5068H65.4617H65.4169H65.3723H65.3279H65.2837H65.2397H65.1959H65.1523H65.1089H65.0657H65.0227H64.9798H64.9372H64.8948H64.8525H64.8104H64.7685H64.7268H64.6853H64.6439H64.6027H64.5617H64.5208H64.4801H64.4396H64.3992H64.359H64.319H64.2791H64.2393H64.1998H64.1603H64.121H64.0819H64.0429H64.004H63.9653H63.9267H63.8883H63.8499H63.8118H63.7737H63.7358H63.698H63.6603H63.6227H63.5852H63.5479H63.5107H63.4736H63.4366H63.3997H63.3629H63.3262H63.2897H63.2532H63.2168H63.1805H63.1443H63.1082H63.0722H63.0363H63.0004H62.9647H62.929H62.8934H62.8579H62.8224H62.787H62.7517H62.7165H62.6813H62.6462H62.6112H62.5762H62.5413H62.5064H62.4716H62.4368H62.4021H62.3674H62.3328H62.2982H62.2636H62.2291H62.1947H62.1602H62.1258H62.0915H62.0571H62.0228H61.9885H61.9543H61.92H61.8858H61.8516H61.8174H61.7832H61.749H61.7148H61.6807H61.6465H61.6124H61.5782H61.544H61.5099H61.4757H61.4415H61.4073H61.3731H61.3389H61.3047H61.2704H61.2361H61.2018H61.1675H61.1331H61.0988H61.0643H61.0299H60.9954H60.9609H60.9263H60.8917H60.8571H60.8224H60.7876H60.7528H60.718H60.6831H60.6481H60.6131H60.578H60.5429H60.5076H60.4724H60.437H60.4016H60.3661H60.3305H60.2949H60.2592H60.2234H60.1875H60.1515H60.1154H60.0793H60.043H60.0067H59.9703H59.9337H59.8971H59.8604H59.8235H59.7866H59.7495H59.7123H59.6751H59.6377H59.6002H59.5625H59.5248H59.4869H59.4489H59.4108H59.3725H59.3341H59.2956H59.2569H59.2181H59.1792H59.1401H59.1009H59.0615H59.022H58.9823H58.9425H58.9025H58.8624H58.8221H58.7816H58.741H58.7002H58.6593H58.6181H58.5769H58.5354H58.4938H58.4519H58.4099H58.3678H58.3254H58.2828H58.2401H58.1972H58.1541H58.1108H58.0672H58.0235H57.9796H57.9355H57.8912H57.8467H57.802H57.757H57.7119H57.6665H57.6209H57.5751H57.5291H57.4828H57.4364H57.3896H57.3427H57.2956H57.2482H57.2005H57.1526H57.1045H57.0562H57.0076H56.9587H56.9096H56.8603H56.8107H56.7609H56.7108H56.6604H56.6098H56.5589H56.5077H56.4563H56.4046H56.3526H56.3004H56.2479H56.1951H56.1421H56.0887H56.0351H55.9812H55.9269H55.8724H55.8177H55.7626H55.7072H55.6515H55.5955H55.5393H55.4827H55.4258H55.3686H55.3111H55.2533H55.1951H55.1367H55.0779H55.0188H54.9594H54.8996H54.8396H54.7792H54.7184H54.6574H54.596H54.5342H54.4721H54.4097H54.347H54.2838H54.2204H54.1566H54.0924H54.0279H53.963H53.8978H53.8322H53.7662H53.6999H53.6332H53.5662H53.4987H53.4309H53.3628H53.2942H53.2253H53.1559H53.0863H53.0162H52.9457H52.8748H52.8036H52.7319H52.6599H52.5874H52.5146H52.4413H52.3677H52.2936H52.2192H52.1443H52.069H51.9933H51.9172H51.8406H51.7637H51.6863H51.6085H51.5303H51.4516H51.3725H51.293H51.213H51.1326H51.0517H50.9705H50.8887H50.8065H50.7239H50.6408H50.5573H50.4733H50.3889H50.304H50.2186H50.1328H50.0465H49.9598H49.8726H49.7849H49.6967H49.6081H49.5189H49.4293H49.3393H49.2487H49.1576H49.0661H48.9741H48.8816H48.7886H48.695H48.601H48.5065H48.4115H48.316H48.22H48.1235H48.0264H47.9289H47.8308H47.7322H47.6331H47.5335H47.4333H47.3327H47.2315H47.1297H47.0275H46.9247H46.8214H46.7175H46.6131H46.5081H46.4026H46.2966H46.19H46.0829H45.9752H45.8669H45.7581H45.6488H45.5389H45.4284H45.3173H45.2057H45.0935H44.9808H44.8675H44.7536H44.6391H44.524H44.4084H44.2922H44.1753H44.053H43.9313H43.8104H43.6901H43.5705H43.4517H43.3335H43.216H43.0993H42.9832H42.8677H42.753H42.639H42.5256H42.4129H42.3008H42.1894H42.0787H41.9687H41.8593H41.7506H41.6425H41.5351H41.4283H41.3222H41.2167H41.1118H41.0076H40.904H40.8011H40.6987H40.5971H40.496H40.3955H40.2957H40.1965H40.0979H39.9999H39.9025H39.8057H39.7095H39.614H39.519H39.4246H39.3308H39.2376H39.145H39.0529H38.9614H38.8706H38.7803H38.6905H38.6013H38.5127H38.4247H38.3372H38.2503H38.1639H38.0781H37.9929H37.9082H37.824H37.7404H37.6573H37.5747H37.4927H37.4112H37.3303H37.2498H37.1699H37.0905H37.0117H36.9333H36.8554H36.7781H36.7013H36.625H36.5491H36.4738H36.399H36.3247H36.2508H36.1774H36.1046H36.0322H35.9603H35.8888H35.8179H35.7474H35.6774H35.6078H35.5387H35.4701H35.4019H35.3342H35.2669H35.2001H35.1338H35.0678H35.0023H34.9373H34.8727H34.8085H34.7448H34.6815H34.6186H34.5561H34.494H34.4324H34.3712H34.3104H34.25H34.19H34.1304H34.0712H34.0124H33.954H33.896H33.8384H33.7812H33.7244H33.6679H33.6118H33.5561H33.5008H33.4458H33.3912H33.337H33.2832H33.2297H33.1765H33.1237H33.0713H33.0192H32.9674H32.916H32.865H32.8143H32.7639H32.7138H32.6641H32.6147H32.5656H32.5169H32.4685H32.4203H32.3725H32.3251H32.2779H32.231H32.1844H32.1382H32.0922H32.0465H32.0011H31.956H31.9112H31.8667H31.8224H31.7785H31.7348H31.6913H31.6482H31.6053H31.5627H31.5203H31.4782H31.4364H31.3948H31.3535H31.3124H31.2716H31.231H31.1906H31.1505H31.1106H31.071H31.0315H30.9923H30.9534H30.9146H30.8761H30.8378H30.7997H30.7618H30.7241H30.6866H30.6493H30.6123H30.5754H30.5387H30.5022H30.4659H30.4298H30.3938H30.3581H30.3225H30.2871H30.2519H30.2168H30.1819H30.1472H30.1126H30.0782H30.044H30.0099H29.9759H29.9421H29.9084H29.8749H29.8416H29.8083H29.7752H29.7423H29.7094H29.6767H29.6441H29.6116H29.5793H29.547H29.5149H29.4829H29.451H29.4192H29.3875H29.3559H29.3244H29.293H29.2617H29.2304H29.1993H29.1682H29.1372H29.1063H29.0755H29.0447H29.014H28.9834H28.9528H28.9223H28.8919H28.8615H28.8312H28.8009H28.7706H28.7405H28.7103H28.6802H28.6501H28.6201H28.5901H28.5601H28.5301H28.5002H28.4703H28.4404H28.4105H28.3806H28.3508H28.3209H28.2911H28.2612H28.2314H28.2015H28.1717H28.1418H28.1119H28.082H28.0521H28.0222H27.9922H27.9622H27.9322H27.9022H27.8721H27.842H27.8118H27.7816H27.7514H27.7211H27.6908H27.6604H27.6299H27.5994H27.5689H27.5382H27.5075H27.4768H27.4459H27.415H27.384H27.3529H27.3218H27.2905H27.2592H27.2278H27.1963H27.1646H27.1329H27.1011H27.0692H27.0372H27.005H26.9728H26.9404H26.9079H26.8753H26.8426H26.8097H26.7768H26.7436H26.7104H26.677H26.6435H26.6098H26.576H26.542H26.5079H26.4736H26.4392H26.4046H26.3699H26.335H26.2999H26.2646H26.2292H26.1936H26.1578H26.1219H26.0858H26.0494H26.0129H25.9762H25.9393H25.9022H25.8649H25.8274H25.7897H25.7518H25.7137H25.6753H25.6368H25.598H25.559H25.5198H25.4803H25.4407H25.4007H25.3606H25.3202H25.2796H25.2387H25.1976H25.1563H25.1146H25.0728H25.0307H24.9883H24.9456H24.9027H24.8595H24.8161H24.7724H24.7284H24.6841H24.6395H24.5947H24.5496H24.5041H24.4584H24.4124H24.3661H24.3195H24.2726H24.2254H24.1779H24.13H24.0819H24.0334H23.9846H23.9355H23.8861H23.8363H23.7862H23.7358H23.6851H23.634H23.5825H23.5308H23.4786H23.4261H23.3733H23.3201H23.2666H23.2127H23.1584H23.1038H23.0488H22.9934H22.9377H22.8816H22.8251H22.7682H22.7109H22.6533H22.5952H22.5368H22.4779H22.4187H22.3591H22.299H22.2386H22.1778H22.1165H22.0548H21.9927H21.9302H21.8673H21.8039H21.7401H21.6759H21.6112H21.5461H21.4806H21.4146H21.3482H21.2814H21.214H21.1463H21.0781H21.0094H20.9402H20.8706H20.8006H20.73H20.659H20.5875H20.5156H20.4431H20.3702H20.2968H20.2229H20.1485H20.0736H19.9982H19.9224H19.846H19.7691H19.6917H19.6138H19.5354H19.4565H19.377H19.2971H19.2166H19.1356H19.054H18.9719H18.8893H18.8062H18.7225H18.6383H18.5535H18.4682H18.3823H18.2959H18.2089H18.1214H18.0333H17.9446H17.8554H17.7656H17.6752H17.5842H17.4927H17.4006H17.3079H17.2146H17.1208H17.0263H16.9313H16.8356H16.7394H16.6425H16.5451H16.447H16.3484H16.2491H16.1492H16.0487H15.9475H15.8458H15.7434H15.6404H15.5367H15.4324H15.3275H15.2219H15.1157H15.0089H14.9014H14.7932H14.6844H14.575H14.4649H14.3541H14.2426H14.1305H14.0177H13.9043H13.7902H13.6753H13.6585H13.6417H13.625H13.6084H13.5919H13.5754H13.559H13.5427H13.5264H13.5102H13.4941H13.4781H13.4621H13.4462H13.4304H13.4147H13.399H13.3834H13.3678H13.3523H13.3369H13.3216H13.3063H13.2911H13.276H13.2609H13.2459H13.231H13.2161H13.2013H13.1866H13.1719H13.1573H13.1428H13.1283H13.1139H13.0996H13.0853H13.0711H13.0569H13.0429H13.0288H13.0149H13.001H12.9872H12.9734H12.9597H12.946H12.9324H12.9189H12.9054H12.892H12.8787H12.8654H12.8522H12.839H12.8259H12.8129H12.7999H12.7869H12.7741H12.7612H12.7485H12.7358H12.7231H12.7105H12.698H12.6855H12.6731H12.6607H12.6484H12.6362H12.624H12.6118H12.5997H12.5877H12.5757H12.5637H12.5519H12.54H12.5282H12.5165H12.5048H12.4932H12.4816H12.4701H12.4586H12.4472H12.4359H12.4245H12.4133H12.402H12.3909H12.3797H12.3686H12.3576H12.3466H12.3357H12.3248H12.314H12.3032H12.2924H12.2817H12.2711H12.2604H12.2499H12.2393H12.2289H12.2184H12.208H12.1977H12.1874H12.1771H12.1669H12.1567H12.1466H12.1365H12.1265H12.1164H12.1065H12.0966H12.0867H12.0768H12.067H12.0572H12.0475H12.0378H12.0282H12.0186H12.009H11.9995H11.99H11.9805H11.9711H11.9617H11.9524H11.943H11.9338H11.9245H11.9153H11.9061H11.897H11.8879H11.8788H11.8698H11.8608H11.8518H11.8429H11.834H11.8251H11.8163H11.8075H11.7987H11.79H11.7813H11.7726H11.764H11.7554H11.7468H11.7382H11.7297H11.7212H11.7127H11.7043H11.6959H11.6875H11.6791H11.6708H11.6625H11.6542H11.646H11.6378H11.6296H11.6214H11.6132H11.6051H11.597H11.589H11.5809H11.5729H11.5649H11.5569H11.549H11.5411H11.5331H11.5253H11.5174H11.5096H11.5018H11.494H11.4862H11.4784H11.4707H11.463H11.4553H11.4476H11.44H11.4323H11.4247H11.4171H11.4095H11.402H11.3944H11.3869H11.3794H11.3719H11.3644H11.357H11.3495H11.3421H11.3347H11.3273H11.3199H11.3125H11.3052H11.2978H11.2905H11.2832H11.2759H11.2686H11.2613H11.2541H11.2468H11.2396H11.2323H11.2251H11.2179H11.2107H11.2035H11.1964H11.1892H11.182H11.1749H11.1677H11.1606H11.1535H11.1464H11.1393H11.1322H11.1251H11.118H11.1109H11.1038H11.0968H11.0897H11.0827H11.0756H11.0686H11.0615H11.0545H11.0475H11.0404H11.0334H11.0264H11.0194H11.0124H11.0053H10.9983H10.9913H10.9843H10.9773H10.9703H10.9633H10.9563H10.9493H10.9423H10.9353H10.9283H10.9213H10.9142H10.9072H10.9002H10.8932H10.8862H10.8792H10.8721H10.8651H10.8581H10.8511H10.844H10.837H10.8299H10.8229H10.8158H10.8088H10.8017H10.7946H10.7875H10.7804H10.7733H10.7662H10.7591H10.752H10.7449H10.7377H10.7306H10.7234H10.7163H10.7091H10.7019H10.6947H10.6875H10.6803H10.6731H10.6659H10.6586H10.6514H10.6441H10.6368H10.6295H10.6222H10.6149H10.6076H10.6002H10.5928H10.5855H10.5781H10.5707H10.5632H10.5558H10.5484H10.5409H10.5334H10.5259H10.5184H10.5108H10.5033H10.4957H10.4881H10.4805H10.4729H10.4652H10.4576H10.4499H10.4422H10.4345H10.4267H10.419H10.4112H10.4034H10.3955H10.3877H10.3798H10.3719H10.364H10.3561H10.3481H10.3401H10.3321H10.3241H10.316H10.3079H10.2998H10.2917H10.2835H10.2754H10.2671H10.2589H10.2506H10.2424H10.234H10.2257H10.2173H10.2089H10.2005H10.192H10.1836H10.1756C10.9443 50.5536 14.1862 44.4399 19.1376 40.5277C24.5424 36.2573 32.7394 34.0008 44.1753 34.0008C44.8733 34.0008 45.5422 33.997 46.1857 33.9934ZM9 92.0008C9 90.3755 9.39666 89.6884 9.58432 89.4692C9.67493 89.3634 9.99571 89.0008 11.25 89.0008H13.5H73.5H76.25C77.5773 89.0008 78.5473 89.4277 79.1215 89.9298C79.6431 90.3859 80 91.0286 80 92.0008C80 92.9257 79.6884 93.3666 79.2926 93.6795C78.7784 94.0861 77.778 94.5008 76.25 94.5008H73.6753H13.6753H11.25C10.5016 94.5008 10.038 94.3991 9.77773 94.3068C9.54049 94.2226 9.46144 94.1444 9.43367 94.1151C9.3941 94.0733 9 93.6266 9 92.0008ZM90 78.5008C92.7614 78.5008 95 76.2622 95 73.5008C95 70.7394 92.7614 68.5008 90 68.5008C87.2386 68.5008 85 70.7394 85 73.5008C85 76.2622 87.2386 78.5008 90 78.5008Z" fill="#18851E"/>
</svg>
